<?xml version="1.0" standalone="no"?>
<!DOCTYPE svg PUBLIC "-//W3C//DTD SVG 20010904//EN"
 "http://www.w3.org/TR/2001/REC-SVG-20010904/DTD/svg10.dtd">
<svg version="1.0" xmlns="http://www.w3.org/2000/svg"
 width="125.000000pt" height="64.000000pt" viewBox="0 0 125.000000 64.000000"
 preserveAspectRatio="xMidYMid meet">

<g transform="translate(0.000000,64.000000) scale(0.100000,-0.100000)"
fill="#FFF" stroke="none">
<path d="M190 512 c-48 -24 -60 -53 -60 -154 l0 -88 80 0 80 0 0 -104 c0 -119
8 -136 67 -136 38 0 77 34 210 183 37 42 58 57 77 57 l26 0 0 -104 c0 -119 8
-136 67 -136 39 0 69 27 204 177 l56 63 57 0 57 0 -3 128 -3 127 -35 3 c-19 2
-58 -1 -86 -8 -54 -12 -50 -8 -208 -178 -66 -72 -76 -63 -76 75 0 121 -2 123
-89 105 -59 -12 -62 -15 -215 -180 -67 -73 -76 -63 -76 79 l0 109 -47 0 c-27
0 -64 -8 -83 -18z"/>
</g>
</svg>
